<?xml version="1.0" encoding="iso-8859-1"?>
<!-- Generator: Adobe Illustrator 19.1.0, SVG Export Plug-In . SVG Version: 6.00 Build 0)  -->
<svg xmlns="http://www.w3.org/2000/svg" xmlns:xlink="http://www.w3.org/1999/xlink" version="1.1" id="Capa_1" x="0px" y="0px" viewBox="0 0 64.886 64.886" style="enable-background:new 0 0 64.886 64.886;" xml:space="preserve" width="512px" height="512px">
<g>
	<g>
		<path d="M0.027,32.498c0.141,0.864,0.827,1.537,1.693,1.66l25.406,3.603l3.604,25.407c0.123,0.866,0.796,1.553,1.66,1.693    c0.107,0.017,0.215,0.025,0.321,0.025c0.748,0,1.446-0.421,1.789-1.107L64.674,3.275c0.383-0.769,0.232-1.696-0.374-2.305    l-0.379-0.38c-0.607-0.611-1.539-0.765-2.309-0.378L1.109,30.387C0.326,30.778-0.112,31.634,0.027,32.498z M58.804,6.084    l-25.015,50.16l-2.865-20.202c-0.062-0.429-0.26-0.826-0.566-1.133l-0.379-0.379c-0.307-0.307-0.704-0.505-1.133-0.566    L8.645,31.099L58.804,6.084z" fill="#FFFFFF"/>
	</g>
</g>
<g>
</g>
<g>
</g>
<g>
</g>
<g>
</g>
<g>
</g>
<g>
</g>
<g>
</g>
<g>
</g>
<g>
</g>
<g>
</g>
<g>
</g>
<g>
</g>
<g>
</g>
<g>
</g>
<g>
</g>
</svg>
