<?xml version="1.0" encoding="UTF-8"?>
<svg xmlns="http://www.w3.org/2000/svg" viewBox="0 0 311.69 302.25">
	<defs>
		<style>.cls-1{fill:#393a4f;}.cls-2{fill:#18a9fc;}.cls-3{fill:#f3581f;}.cls-4{font-size:36px;fill:#fff;font-family:Arial-BoldMT, Arial;font-weight:700;}</style>
	</defs>
	<title>Asset 2</title>
	<g id="Layer_2" data-name="Layer 2">
		<g id="Layer_1-2" data-name="Layer 1">
			<path id="Swell" class="cls-1" d="M132.37,1.45a65.52,65.52,0,0,0-11.3,4.6c-7.4,3.9-19.6,15.2-24.7,22.7-8.1,11.9-17.1,32.9-21,49.1-3.3,14-4.3,19.1-3.8,19.6.3.3,2.7-1,5.4-2.9,8.5-6,28.3-16.4,37.9-19.8,37.5-13.3,65.9-9.9,104.1,12.5,18.2,10.8,45.8,35.2,56.3,49.8,5.2,7.4,6.8,6.2,2.6-2-1.3-2.6-3.6-7.9-5.1-11.7-5.7-14.5-17.4-37.2-26.8-51.9-25.3-39.7-52.2-62.6-82.7-70.2C156.07-.45,139.27-.45,132.37,1.45Z" />
			<path id="Wind" class="cls-2" d="M310,238.62a65.52,65.52,0,0,0,1.67-12.09c.32-8.36-3.36-24.57-7.31-32.74-6.26-13-19.94-31.26-32-42.74-10.47-9.86-14.39-13.27-15.07-13.09-.41.11-.48,2.84-.19,6.13.95,10.36.05,32.71-1.8,42.72-7.23,39.13-24.38,62-62.88,83.9-18.45,10.36-53.38,22.06-71.28,23.86-9,.8-8.77,2.79.43,3.25,2.9.17,8.64.83,12.68,1.43,15.41,2.31,40.92,3.53,58.35,2.74,47-2.06,80.31-13.91,102.14-36.52C299.8,260.1,308.2,245.55,310,238.62Z" />
			<path id="Tide" class="cls-3" d="M19.36,276.16A65.52,65.52,0,0,0,29,283.65c7.08,4.46,23,9.37,32,10,14.36,1.06,37-1.64,53-6.36,13.77-4.14,18.69-5.83,18.87-6.51.11-.41-2.22-1.84-5.21-3.23-9.45-4.36-28.35-16.31-36.1-22.92-30.27-25.83-41.52-52.12-41.22-96.4.25-21.16,7.58-57.26,15-73.66,3.81-8.2,2-9-3-1.25-1.6,2.43-5,7.07-7.58,10.27C45,105.81,31.21,127.29,23.18,142.78,1.45,184.54-4.93,219.29,3.74,249.5,5.87,256.59,14.27,271.14,19.36,276.16Z" />
			<text class="cls-4" transform="translate(24.12 245.61)">T</text>
			<text class="cls-4" transform="translate(260.12 245.61)">W</text>
			<text class="cls-4" transform="translate(142.12 47.61)">S</text>
		</g>
	</g>
</svg>
