 <svg version="1.0" xmlns="http://www.w3.org/2000/svg" width="700.000000pt" height="381.000000pt" viewBox="0 0 700.000000 381.000000" preserveAspectRatio="xMidYMid meet">
<metadata>
Created by potrace 1.12, written by Peter Selinger 2001-2015
</metadata>
<g transform="translate(0.000000,381.000000) scale(0.100000,-0.100000)" fill="#000000" stroke="none">
<path d="M3501 2834 c-30 -8 -81 -29 -113 -46 -74 -39 -196 -152 -247 -227
-81 -119 -171 -329 -210 -491 -33 -140 -43 -191 -38 -196 3 -3 27 10 54 29 85
60 283 164 379 198 375 133 659 99 1041 -125 182 -108 458 -352 563 -498 52
-74 68 -62 26 20 -13 26 -36 79 -51 117 -57 145 -174 372 -268 519 -253 397
-522 626 -827 702 -72 17 -240 17 -309 -2z m297 -326 c2 -12 -4 -16 -30 -15
-44 3 -43 -18 2 -41 28 -14 35 -23 35 -47 0 -39 -41 -64 -82 -49 -43 15 -37
40 10 36 28 -3 37 0 37 11 0 9 -17 24 -37 34 -44 21 -53 46 -27 74 23 25 87
23 92 -3z"></path>
</g>
</svg>