<!DOCTYPE svg PUBLIC "-//W3C//DTD SVG 20010904//EN" "http://www.w3.org/TR/2001/REC-SVG-20010904/DTD/svg10.dtd">
<svg version="1.0" xmlns="http://www.w3.org/2000/svg" width="1280px" height="697px" viewBox="0 0 12800 6970" preserveAspectRatio="xMidYMid meet">
<g id="layer101" fill="#f35820" stroke="none">
 <path d="M4740 5863 c-143 -13 -330 -53 -392 -83 -23 -11 -48 -20 -55 -20 -16 0 -110 -50 -195 -106 -76 -49 -239 -207 -264 -256 -9 -18 -22 -40 -29 -48 -7 -8 -22 -32 -34 -52 -12 -21 -30 -54 -41 -73 -26 -47 -89 -236 -101 -305 -5 -30 -17 -95 -26 -145 -27 -158 -20 -343 24 -625 13 -88 23 -127 73 -310 24 -83 67 -210 80 -232 5 -10 10 -26 10 -36 0 -9 6 -26 14 -37 7 -11 19 -38 26 -60 7 -22 22 -60 34 -85 61 -124 85 -178 97 -210 7 -19 18 -42 25 -50 7 -8 24 -40 39 -70 14 -30 44 -84 65 -120 22 -36 44 -75 49 -87 6 -12 24 -41 41 -64 16 -23 30 -47 30 -52 0 -6 11 -25 25 -43 14 -18 25 -36 25 -40 0 -4 14 -25 31 -48 16 -23 50 -72 75 -111 25 -38 54 -81 64 -95 10 -14 37 -50 59 -80 22 -30 49 -67 61 -81 12 -14 29 -37 38 -51 9 -14 51 -70 92 -123 41 -54 82 -107 90 -119 20 -28 51 -56 63 -56 16 0 2 82 -26 146 -50 118 -87 221 -87 245 0 13 -14 62 -30 109 -16 47 -30 98 -30 113 0 16 -11 67 -25 115 -23 85 -55 274 -77 457 -18 152 -14 602 6 725 9 58 23 146 31 195 7 50 25 128 39 174 14 47 26 91 26 98 0 8 12 40 26 71 14 31 33 75 42 97 8 22 24 52 34 67 10 14 18 30 18 34 0 15 110 178 155 230 106 122 138 157 180 198 84 82 192 176 201 176 5 0 21 13 36 29 15 15 41 34 58 41 16 7 30 18 30 25 0 7 6 15 14 18 8 3 52 30 98 60 140 91 230 143 353 204 93 46 135 77 135 99 0 12 -121 64 -148 64 -7 0 -20 4 -30 9 -9 6 -51 20 -92 31 -41 12 -79 25 -85 30 -5 4 -30 10 -55 14 -42 6 -74 13 -236 51 -34 8 -81 17 -105 20 -24 2 -102 11 -174 20 -118 13 -283 17 -375 8z"/>
 </g>
<g id="layer102" fill="#FF0000" stroke="none">

 </g>
<g id="layer103" fill="#bb8e6f" stroke="none">

 </g>
<g id="layer104" fill="#e4906d" stroke="none">

 </g>
<g id="layer105" fill="#bca184" stroke="none">

 </g>
<g id="layer106" fill="#e9af96" stroke="none">

 </g>
<g id="layer107" fill="#f0c8ae" stroke="none">

 <path d="M3888 5468 c-25 -29 -50 -64 -57 -78 l-12 -25 18 25 c10 13 37 48 61 77 56 69 48 69 -10 1z"/>
 <path d="M5803 5474 c-24 -14 -43 -27 -43 -30 0 -6 67 33 85 48 17 15 1 8 -42 -18z"/>
 <path d="M5702 5416 c-46 -33 -53 -43 -14 -20 19 10 38 25 44 32 15 17 8 14 -30 -12z"/>
 <path d="M3746 5256 c-23 -36 -20 -44 5 -12 12 15 19 29 16 32 -2 2 -12 -7 -21 -20z"/>
 <path d="M5410 5220 l-25 -21 28 12 c15 7 27 16 27 21 0 11 -1 10 -30 -12z"/>
 <path d="M4280 5112 c0 -122 -8 -142 -58 -142 -21 0 -24 -2 -12 -10 8 -5 47 -10 85 -10 39 0 77 5 85 10 12 8 9 10 -13 10 -49 0 -62 29 -62 142 0 72 -4 102 -12 105 -10 4 -13 -22 -13 -105z"/>
 <path d="M3681 5109 c-6 -18 -9 -34 -7 -36 2 -2 9 10 15 28 6 18 9 34 7 36 -2 2 -9 -10 -15 -28z"/>
 <path d="M5280 5127 c-8 -7 -22 -21 -30 -32 -8 -11 0 -7 18 9 29 27 37 37 30 36 -2 0 -10 -6 -18 -13z"/>
 <path d="M5145 5003 c-60 -57 -65 -63 -20 -25 57 48 113 103 104 102 -2 -1 -40 -35 -84 -77z"/>
 <path d="M3661 5048 c0 -9 -4 -25 -7 -35 -5 -17 -5 -17 6 0 6 10 9 25 7 35 -4 15 -5 15 -6 0z"/>
 <path d="M3636 4968 c-3 -13 -5 -32 -5 -43 1 -11 5 -2 10 19 10 42 6 62 -5 24z"/>
 <path d="M5028 4883 c-18 -20 -41 -45 -50 -55 -10 -10 -14 -18 -10 -18 5 0 30 25 56 55 26 30 45 55 42 55 -3 0 -20 -17 -38 -37z"/>
 <path d="M3616 4859 c-8 -42 0 -50 9 -9 4 17 5 34 2 36 -2 3 -7 -10 -11 -27z"/>
 <path d="M3595 4715 c-4 -36 -5 -68 -3 -71 3 -2 8 25 12 62 4 37 5 69 2 71 -2 3 -7 -25 -11 -62z"/>
 <path d="M4800 4589 c-12 -16 -21 -32 -18 -34 2 -2 13 12 26 31 28 42 21 45 -8 3z"/>
 <path d="M3583 4570 c0 -25 2 -35 4 -22 2 12 2 32 0 45 -2 12 -4 2 -4 -23z"/>
 <path d="M3593 4415 c0 -22 2 -30 4 -17 2 12 2 30 0 40 -3 9 -5 -1 -4 -23z"/>
 <path d="M4702 4395 c-17 -37 -14 -45 4 -12 9 16 14 31 11 33 -2 2 -9 -7 -15 -21z"/>
 <path d="M4636 4209 c-9 -34 -15 -63 -13 -66 2 -2 12 24 21 58 10 33 16 63 13 65 -2 2 -11 -24 -21 -57z"/>
 <path d="M4575 3925 c-3 -26 -4 -49 -2 -51 3 -3 8 16 12 41 3 26 4 49 2 51 -3 3 -8 -16 -12 -41z"/>
 <path d="M4543 3645 c0 -38 2 -53 4 -32 2 20 2 52 0 70 -2 17 -4 1 -4 -38z"/>
 <path d="M3790 3567 c0 -7 7 -22 15 -33 13 -17 14 -16 4 14 -11 33 -19 41 -19 19z"/>
 <path d="M3841 3445 c0 -5 6 -21 14 -35 8 -14 14 -20 14 -15 0 6 -6 21 -14 35 -8 14 -14 21 -14 15z"/>
 <path d="M3915 3280 c9 -16 18 -30 21 -30 2 0 -2 14 -11 30 -9 17 -18 30 -21 30 -2 0 2 -13 11 -30z"/>
 <path d="M4543 3220 c0 -36 2 -50 4 -32 2 17 2 47 0 65 -2 17 -4 3 -4 -33z"/>
 <path d="M3970 3157 c0 -3 11 -23 25 -43 14 -20 25 -33 25 -27 0 5 -11 24 -25 43 -14 19 -25 31 -25 27z"/>
 <path d="M4553 3080 c0 -25 2 -35 4 -22 2 12 2 32 0 45 -2 12 -4 2 -4 -23z"/>
 <path d="M4020 3068 c0 -11 32 -68 41 -74 5 -3 0 12 -12 33 -22 40 -29 50 -29 41z"/>
 <path d="M4567 2955 c3 -27 7 -52 9 -54 7 -8 2 54 -6 79 -6 17 -7 9 -3 -25z"/>
 <path d="M4100 2921 c11 -22 24 -42 29 -46 6 -3 -2 15 -15 40 -31 55 -42 60 -14 6z"/>
 <path d="M4140 2854 c0 -9 51 -84 57 -84 5 0 -1 11 -34 59 -13 19 -23 30 -23 25z"/>
 <path d="M4210 2734 c0 -5 12 -22 26 -39 l26 -30 -23 35 c-29 45 -29 45 -29 34z"/>
 <path d="M4399 2445 c17 -33 31 -51 31 -40 0 6 -10 21 -21 35 -13 17 -17 18 -10 5z"/>
 <path d="M4440 2396 c0 -10 58 -94 71 -102 8 -5 -29 53 -68 105 -2 2 -3 1 -3 -3z"/>
 <path d="M4701 2340 c0 -8 4 -24 9 -35 5 -13 9 -14 9 -5 0 8 -4 24 -9 35 -5 13 -9 14 -9 5z"/>
 <path d="M4588 2185 c6 -11 21 -29 34 -40 22 -19 22 -19 -2 10 -40 48 -43 51 -32 30z"/>
 <path d="M4660 2090 c11 -16 26 -33 32 -36 7 -4 -1 9 -16 29 -34 44 -46 50 -16 7z"/>
 <path d="M4781 2075 c0 -5 8 -26 19 -45 11 -19 19 -30 19 -25 0 6 -8 26 -19 45 -11 19 -19 31 -19 25z"/>
 <path d="M4830 1935 c0 -31 -7 -31 -37 -3 -31 29 -29 15 2 -17 35 -34 45 -32 45 10 0 19 -2 35 -5 35 -3 0 -5 -11 -5 -25z"/>
 </g>
<g id="layer108" fill="#f7bcc2" stroke="none">
 <path d="M4277 4986 c-3 -8 -16 -16 -29 -19 -13 -2 6 -5 42 -6 l65 -1 -30 20 c-36 24 -41 24 -48 6z"/>
 </g>
<g id="layer109" fill="#dce2d3" stroke="none">
 <path d="M4277 4986 c-3 -8 -16 -16 -29 -19 -13 -2 6 -5 42 -6 l65 -1 -30 20 c-36 24 -41 24 -48 6z"/>
 </g>

</svg>
